<mxfile host="app.diagrams.net" modified="2022-03-11T08:17:56.924Z" agent="5.0 (Windows NT 10.0; WOW64) AppleWebKit/537.36 (KHTML, like Gecko) Chrome/97.0.4692.104 Safari/537.36" etag="6mzAJimyvJn3GWOW2BQi" version="16.5.6" type="github">
  <diagram id="AeTLExCufDV02sZGig4p" name="Page-1">
    <mxGraphModel dx="416" dy="338" grid="1" gridSize="10" guides="1" tooltips="1" connect="1" arrows="1" fold="1" page="1" pageScale="1" pageWidth="850" pageHeight="1100" math="0" shadow="0">
      <root>
        <mxCell id="0" />
        <mxCell id="1" parent="0" />
        <mxCell id="SzJLteIwn-uA7Bf8O0Hc-7" style="edgeStyle=orthogonalEdgeStyle;rounded=0;orthogonalLoop=1;jettySize=auto;html=1;exitX=1;exitY=0.5;exitDx=0;exitDy=0;exitPerimeter=0;entryX=0;entryY=0.5;entryDx=0;entryDy=0;entryPerimeter=0;" edge="1" parent="1" source="SzJLteIwn-uA7Bf8O0Hc-1" target="SzJLteIwn-uA7Bf8O0Hc-6">
          <mxGeometry relative="1" as="geometry" />
        </mxCell>
        <mxCell id="SzJLteIwn-uA7Bf8O0Hc-1" value="" style="points=[[0.145,0.145,0],[0.5,0,0],[0.855,0.145,0],[1,0.5,0],[0.855,0.855,0],[0.5,1,0],[0.145,0.855,0],[0,0.5,0]];shape=mxgraph.bpmn.event;html=1;verticalLabelPosition=bottom;labelBackgroundColor=#ffffff;verticalAlign=top;align=center;perimeter=ellipsePerimeter;outlineConnect=0;aspect=fixed;outline=standard;symbol=general;" vertex="1" parent="1">
          <mxGeometry x="80" y="200" width="50" height="50" as="geometry" />
        </mxCell>
        <mxCell id="SzJLteIwn-uA7Bf8O0Hc-9" value="" style="edgeStyle=orthogonalEdgeStyle;rounded=0;orthogonalLoop=1;jettySize=auto;html=1;exitX=0.5;exitY=0;exitDx=0;exitDy=0;exitPerimeter=0;entryX=0;entryY=0.5;entryDx=0;entryDy=0;" edge="1" parent="1" source="SzJLteIwn-uA7Bf8O0Hc-6" target="SzJLteIwn-uA7Bf8O0Hc-8">
          <mxGeometry relative="1" as="geometry" />
        </mxCell>
        <mxCell id="SzJLteIwn-uA7Bf8O0Hc-11" style="edgeStyle=orthogonalEdgeStyle;rounded=0;orthogonalLoop=1;jettySize=auto;html=1;exitX=0.5;exitY=1;exitDx=0;exitDy=0;exitPerimeter=0;entryX=0;entryY=0.5;entryDx=0;entryDy=0;" edge="1" parent="1" source="SzJLteIwn-uA7Bf8O0Hc-6" target="SzJLteIwn-uA7Bf8O0Hc-10">
          <mxGeometry relative="1" as="geometry" />
        </mxCell>
        <mxCell id="SzJLteIwn-uA7Bf8O0Hc-6" value="" style="points=[[0.25,0.25,0],[0.5,0,0],[0.75,0.25,0],[1,0.5,0],[0.75,0.75,0],[0.5,1,0],[0.25,0.75,0],[0,0.5,0]];shape=mxgraph.bpmn.gateway2;html=1;verticalLabelPosition=bottom;labelBackgroundColor=#ffffff;verticalAlign=top;align=center;perimeter=rhombusPerimeter;outlineConnect=0;outline=none;symbol=none;gwType=exclusive;" vertex="1" parent="1">
          <mxGeometry x="170" y="200" width="50" height="50" as="geometry" />
        </mxCell>
        <mxCell id="SzJLteIwn-uA7Bf8O0Hc-29" style="edgeStyle=orthogonalEdgeStyle;rounded=0;orthogonalLoop=1;jettySize=auto;html=1;exitX=1;exitY=0.5;exitDx=0;exitDy=0;entryX=0;entryY=0.5;entryDx=0;entryDy=0;entryPerimeter=0;" edge="1" parent="1" source="SzJLteIwn-uA7Bf8O0Hc-8" target="SzJLteIwn-uA7Bf8O0Hc-28">
          <mxGeometry relative="1" as="geometry" />
        </mxCell>
        <mxCell id="SzJLteIwn-uA7Bf8O0Hc-8" value="Soạn tút mới" style="rounded=1;whiteSpace=wrap;html=1;verticalAlign=top;labelBackgroundColor=#ffffff;" vertex="1" parent="1">
          <mxGeometry x="240" y="140" width="120" height="30" as="geometry" />
        </mxCell>
        <mxCell id="SzJLteIwn-uA7Bf8O0Hc-57" style="edgeStyle=orthogonalEdgeStyle;rounded=0;orthogonalLoop=1;jettySize=auto;html=1;exitX=1;exitY=0.5;exitDx=0;exitDy=0;entryX=0.5;entryY=1;entryDx=0;entryDy=0;entryPerimeter=0;" edge="1" parent="1" source="SzJLteIwn-uA7Bf8O0Hc-10" target="SzJLteIwn-uA7Bf8O0Hc-28">
          <mxGeometry relative="1" as="geometry" />
        </mxCell>
        <mxCell id="SzJLteIwn-uA7Bf8O0Hc-10" value="Upload ảnh/Video" style="rounded=1;whiteSpace=wrap;html=1;verticalAlign=top;labelBackgroundColor=#ffffff;" vertex="1" parent="1">
          <mxGeometry x="240" y="280" width="120" height="30" as="geometry" />
        </mxCell>
        <mxCell id="SzJLteIwn-uA7Bf8O0Hc-14" style="edgeStyle=orthogonalEdgeStyle;rounded=0;orthogonalLoop=1;jettySize=auto;html=1;exitX=0.5;exitY=0;exitDx=0;exitDy=0;exitPerimeter=0;entryX=0.5;entryY=1;entryDx=0;entryDy=0;" edge="1" parent="1" source="SzJLteIwn-uA7Bf8O0Hc-12" target="SzJLteIwn-uA7Bf8O0Hc-13">
          <mxGeometry relative="1" as="geometry" />
        </mxCell>
        <mxCell id="SzJLteIwn-uA7Bf8O0Hc-15" value="Thoát" style="edgeLabel;html=1;align=center;verticalAlign=middle;resizable=0;points=[];" vertex="1" connectable="0" parent="SzJLteIwn-uA7Bf8O0Hc-14">
          <mxGeometry x="-0.2214" y="-1" relative="1" as="geometry">
            <mxPoint as="offset" />
          </mxGeometry>
        </mxCell>
        <mxCell id="SzJLteIwn-uA7Bf8O0Hc-60" style="edgeStyle=orthogonalEdgeStyle;rounded=0;orthogonalLoop=1;jettySize=auto;html=1;exitX=1;exitY=0.5;exitDx=0;exitDy=0;exitPerimeter=0;entryX=0;entryY=0.5;entryDx=0;entryDy=0;" edge="1" parent="1" source="SzJLteIwn-uA7Bf8O0Hc-12" target="SzJLteIwn-uA7Bf8O0Hc-59">
          <mxGeometry relative="1" as="geometry" />
        </mxCell>
        <mxCell id="SzJLteIwn-uA7Bf8O0Hc-12" value="" style="points=[[0.25,0.25,0],[0.5,0,0],[0.75,0.25,0],[1,0.5,0],[0.75,0.75,0],[0.5,1,0],[0.25,0.75,0],[0,0.5,0]];shape=mxgraph.bpmn.gateway2;html=1;verticalLabelPosition=bottom;labelBackgroundColor=#ffffff;verticalAlign=top;align=center;perimeter=rhombusPerimeter;outlineConnect=0;outline=none;symbol=none;gwType=exclusive;" vertex="1" parent="1">
          <mxGeometry x="855" y="130" width="50" height="50" as="geometry" />
        </mxCell>
        <mxCell id="SzJLteIwn-uA7Bf8O0Hc-13" value="Confirmation Dialog" style="rounded=1;whiteSpace=wrap;html=1;verticalAlign=top;labelBackgroundColor=#ffffff;" vertex="1" parent="1">
          <mxGeometry x="820" y="60" width="120" height="30" as="geometry" />
        </mxCell>
        <mxCell id="SzJLteIwn-uA7Bf8O0Hc-38" style="edgeStyle=orthogonalEdgeStyle;rounded=0;orthogonalLoop=1;jettySize=auto;html=1;exitX=1;exitY=0.5;exitDx=0;exitDy=0;entryX=0;entryY=0.5;entryDx=0;entryDy=0;entryPerimeter=0;" edge="1" parent="1" source="SzJLteIwn-uA7Bf8O0Hc-17" target="SzJLteIwn-uA7Bf8O0Hc-34">
          <mxGeometry relative="1" as="geometry" />
        </mxCell>
        <mxCell id="SzJLteIwn-uA7Bf8O0Hc-17" value="Tag mã" style="rounded=1;whiteSpace=wrap;html=1;verticalAlign=top;labelBackgroundColor=#ffffff;" vertex="1" parent="1">
          <mxGeometry x="530" y="160" width="120" height="30" as="geometry" />
        </mxCell>
        <mxCell id="SzJLteIwn-uA7Bf8O0Hc-35" style="edgeStyle=orthogonalEdgeStyle;rounded=0;orthogonalLoop=1;jettySize=auto;html=1;exitX=1;exitY=0.5;exitDx=0;exitDy=0;entryX=0;entryY=0.5;entryDx=0;entryDy=0;entryPerimeter=0;" edge="1" parent="1" source="SzJLteIwn-uA7Bf8O0Hc-19" target="SzJLteIwn-uA7Bf8O0Hc-34">
          <mxGeometry relative="1" as="geometry" />
        </mxCell>
        <mxCell id="SzJLteIwn-uA7Bf8O0Hc-19" value="Text, icon" style="rounded=1;whiteSpace=wrap;html=1;verticalAlign=top;labelBackgroundColor=#ffffff;" vertex="1" parent="1">
          <mxGeometry x="530" y="80" width="120" height="30" as="geometry" />
        </mxCell>
        <mxCell id="SzJLteIwn-uA7Bf8O0Hc-36" style="edgeStyle=orthogonalEdgeStyle;rounded=0;orthogonalLoop=1;jettySize=auto;html=1;exitX=1;exitY=0.5;exitDx=0;exitDy=0;entryX=0;entryY=0.5;entryDx=0;entryDy=0;entryPerimeter=0;" edge="1" parent="1" source="SzJLteIwn-uA7Bf8O0Hc-20" target="SzJLteIwn-uA7Bf8O0Hc-34">
          <mxGeometry relative="1" as="geometry" />
        </mxCell>
        <mxCell id="SzJLteIwn-uA7Bf8O0Hc-20" value="Image/Video" style="rounded=1;whiteSpace=wrap;html=1;verticalAlign=top;labelBackgroundColor=#ffffff;" vertex="1" parent="1">
          <mxGeometry x="530" y="120" width="120" height="30" as="geometry" />
        </mxCell>
        <mxCell id="SzJLteIwn-uA7Bf8O0Hc-40" style="edgeStyle=orthogonalEdgeStyle;rounded=0;orthogonalLoop=1;jettySize=auto;html=1;exitX=1;exitY=0.5;exitDx=0;exitDy=0;entryX=0;entryY=0.5;entryDx=0;entryDy=0;entryPerimeter=0;" edge="1" parent="1" source="SzJLteIwn-uA7Bf8O0Hc-21" target="SzJLteIwn-uA7Bf8O0Hc-34">
          <mxGeometry relative="1" as="geometry" />
        </mxCell>
        <mxCell id="SzJLteIwn-uA7Bf8O0Hc-21" value="Mention" style="rounded=1;whiteSpace=wrap;html=1;verticalAlign=top;labelBackgroundColor=#ffffff;" vertex="1" parent="1">
          <mxGeometry x="530" y="200" width="120" height="30" as="geometry" />
        </mxCell>
        <mxCell id="SzJLteIwn-uA7Bf8O0Hc-30" style="edgeStyle=orthogonalEdgeStyle;rounded=0;orthogonalLoop=1;jettySize=auto;html=1;exitX=1;exitY=0.5;exitDx=0;exitDy=0;exitPerimeter=0;entryX=0;entryY=0.5;entryDx=0;entryDy=0;" edge="1" parent="1" source="SzJLteIwn-uA7Bf8O0Hc-28" target="SzJLteIwn-uA7Bf8O0Hc-19">
          <mxGeometry relative="1" as="geometry" />
        </mxCell>
        <mxCell id="SzJLteIwn-uA7Bf8O0Hc-31" style="edgeStyle=orthogonalEdgeStyle;rounded=0;orthogonalLoop=1;jettySize=auto;html=1;exitX=1;exitY=0.5;exitDx=0;exitDy=0;exitPerimeter=0;entryX=0;entryY=0.5;entryDx=0;entryDy=0;" edge="1" parent="1" source="SzJLteIwn-uA7Bf8O0Hc-28" target="SzJLteIwn-uA7Bf8O0Hc-20">
          <mxGeometry relative="1" as="geometry" />
        </mxCell>
        <mxCell id="SzJLteIwn-uA7Bf8O0Hc-32" style="edgeStyle=orthogonalEdgeStyle;rounded=0;orthogonalLoop=1;jettySize=auto;html=1;exitX=1;exitY=0.5;exitDx=0;exitDy=0;exitPerimeter=0;" edge="1" parent="1" source="SzJLteIwn-uA7Bf8O0Hc-28" target="SzJLteIwn-uA7Bf8O0Hc-17">
          <mxGeometry relative="1" as="geometry" />
        </mxCell>
        <mxCell id="SzJLteIwn-uA7Bf8O0Hc-33" style="edgeStyle=orthogonalEdgeStyle;rounded=0;orthogonalLoop=1;jettySize=auto;html=1;exitX=1;exitY=0.5;exitDx=0;exitDy=0;exitPerimeter=0;entryX=0;entryY=0.25;entryDx=0;entryDy=0;" edge="1" parent="1" source="SzJLteIwn-uA7Bf8O0Hc-28" target="SzJLteIwn-uA7Bf8O0Hc-21">
          <mxGeometry relative="1" as="geometry" />
        </mxCell>
        <mxCell id="SzJLteIwn-uA7Bf8O0Hc-28" value="" style="points=[[0.25,0.25,0],[0.5,0,0],[0.75,0.25,0],[1,0.5,0],[0.75,0.75,0],[0.5,1,0],[0.25,0.75,0],[0,0.5,0]];shape=mxgraph.bpmn.gateway2;html=1;verticalLabelPosition=bottom;labelBackgroundColor=#ffffff;verticalAlign=top;align=center;perimeter=rhombusPerimeter;outlineConnect=0;outline=none;symbol=none;gwType=parallel;" vertex="1" parent="1">
          <mxGeometry x="400" y="130" width="50" height="50" as="geometry" />
        </mxCell>
        <mxCell id="SzJLteIwn-uA7Bf8O0Hc-58" style="edgeStyle=orthogonalEdgeStyle;rounded=0;orthogonalLoop=1;jettySize=auto;html=1;exitX=1;exitY=0.5;exitDx=0;exitDy=0;exitPerimeter=0;" edge="1" parent="1" source="SzJLteIwn-uA7Bf8O0Hc-34" target="SzJLteIwn-uA7Bf8O0Hc-12">
          <mxGeometry relative="1" as="geometry" />
        </mxCell>
        <mxCell id="SzJLteIwn-uA7Bf8O0Hc-34" value="" style="points=[[0.25,0.25,0],[0.5,0,0],[0.75,0.25,0],[1,0.5,0],[0.75,0.75,0],[0.5,1,0],[0.25,0.75,0],[0,0.5,0]];shape=mxgraph.bpmn.gateway2;html=1;verticalLabelPosition=bottom;labelBackgroundColor=#ffffff;verticalAlign=top;align=center;perimeter=rhombusPerimeter;outlineConnect=0;outline=none;symbol=none;gwType=parallel;" vertex="1" parent="1">
          <mxGeometry x="720" y="130" width="50" height="50" as="geometry" />
        </mxCell>
        <mxCell id="SzJLteIwn-uA7Bf8O0Hc-59" value="Đăng" style="rounded=1;whiteSpace=wrap;html=1;verticalAlign=top;labelBackgroundColor=#ffffff;" vertex="1" parent="1">
          <mxGeometry x="940" y="140" width="120" height="30" as="geometry" />
        </mxCell>
      </root>
    </mxGraphModel>
  </diagram>
</mxfile>
